<?xml version="1.0" encoding="iso-8859-1"?>
<!-- Generator: Adobe Illustrator 18.0.0, SVG Export Plug-In . SVG Version: 6.00 Build 0)  -->
<!DOCTYPE svg PUBLIC "-//W3C//DTD SVG 1.1//EN" "http://www.w3.org/Graphics/SVG/1.1/DTD/svg11.dtd">
<svg version="1.1" id="Layer_1" xmlns="http://www.w3.org/2000/svg" xmlns:xlink="http://www.w3.org/1999/xlink" x="0px" y="0px"
	 viewBox="0 0 800 600" style="enable-background:new 0 0 800 600;" xml:space="preserve">
<path style="fill:#FFFFFF;stroke:#000000;stroke-miterlimit:10;" d="M204,162.833c16.295-1.59-11.667-50,3.333-67.5
	s60-34.167,94.167,3.333S394,92.833,413.167,87c19.167-5.833,60-31.667,95.833,4.167s19.167,55.833,20,90
	s58.333,63.333,56.667,89.167C584,296.167,614.833,339.5,564,338.667c-50.833-0.833-159.167-10.833-137.5,20
	s34.167,107.5,10.833,105c-23.333-2.5-162.5,30-163.333-54.167s-24.167-65.833-32.5-60.833s-99.167,62.5-79.167-20.833
	S129,237,129,237S33.167,179.5,204,162.833z"/>
</svg>
